<?xml version="1.0" encoding="UTF-8"?>
<svg version="1.1" xmlns="http://www.w3.org/2000/svg" width="512" height="512">
<path d="M0 0 C1.27149399 -0.00960754 2.54298798 -0.01921509 3.85301208 -0.02911377 C5.2471397 -0.03396101 6.6412694 -0.03824002 8.03540039 -0.04199219 C9.46025088 -0.04774316 10.88510134 -0.0535009 12.30995178 -0.05926514 C15.29843507 -0.06977418 18.28689146 -0.07561767 21.27539062 -0.07910156 C25.10678088 -0.08459051 28.9378165 -0.10862706 32.76909542 -0.13707352 C35.71245874 -0.15568554 38.65573632 -0.16090468 41.59915352 -0.16243744 C43.01177474 -0.16546705 44.42439435 -0.17350603 45.83695793 -0.18662262 C47.81180689 -0.20365346 49.78680183 -0.19996236 51.76171875 -0.1953125 C52.88597763 -0.19895813 54.01023651 -0.20260376 55.16856384 -0.20635986 C57.94555664 0.16113281 57.94555664 0.16113281 59.83204651 1.43341064 C60.94555664 3.16113281 60.94555664 3.16113281 60.94555664 7.16113281 C67.54555664 7.16113281 74.14555664 7.16113281 80.94555664 7.16113281 C81.27555664 5.51113281 81.60555664 3.86113281 81.94555664 2.16113281 C84.37309397 -0.26640451 85.65246128 -0.08217732 88.96542668 -0.11567819 C90.01861439 -0.11103239 90.01861439 -0.11103239 91.09307861 -0.10629272 C92.21022692 -0.11308939 92.21022692 -0.11308939 93.34994388 -0.12002337 C95.85876495 -0.13273706 98.36737087 -0.13104253 100.8762207 -0.12939453 C102.6697162 -0.13537557 104.46320911 -0.14218012 106.25669861 -0.14974976 C111.13907242 -0.16746329 116.02137619 -0.17210747 120.90377903 -0.17338133 C124.9767744 -0.17527749 129.04975335 -0.18263202 133.12274241 -0.18972552 C142.73279698 -0.20602849 152.34281406 -0.21089285 161.95288086 -0.20947266 C171.86968817 -0.20827168 181.78627767 -0.22936036 191.70302987 -0.26095998 C200.21180886 -0.28710807 208.72051668 -0.29784052 217.22933555 -0.29656184 C222.31345244 -0.29605164 227.39737601 -0.30176624 232.48145294 -0.32291794 C237.2651013 -0.34227482 242.0483715 -0.34244224 246.83203316 -0.32788467 C248.58720768 -0.32579209 250.34240571 -0.33052419 252.0975399 -0.34260559 C254.49550485 -0.35804157 256.8921633 -0.34876181 259.2901001 -0.33334351 C259.98330235 -0.34363063 260.6765046 -0.35391776 261.39071298 -0.36451662 C266.34161231 -0.29426337 269.12826285 1.0751618 272.94555664 4.16113281 C277.64067051 10.17339485 277.47838681 15.56576183 277.33618164 23.00097656 C277.33052185 24.12307022 277.32486206 25.24516388 277.31903076 26.40126038 C277.29673006 29.96749433 277.24654313 33.53270509 277.19555664 37.09863281 C277.17548359 39.52374846 277.15723424 41.94887993 277.14086914 44.37402344 C277.09688589 50.30340604 277.03003612 56.2321963 276.94555664 62.16113281 C278.14051758 61.63712891 278.14051758 61.63712891 279.35961914 61.10253906 C280.41922852 60.6475 281.47883789 60.19246094 282.57055664 59.72363281 C284.13676758 59.04494141 284.13676758 59.04494141 285.73461914 58.35253906 C295.53825587 54.71493663 305.2506149 55.71703846 314.94555664 59.16113281 C327.86458056 65.50882898 335.51132488 76.97886242 343.94555664 88.16113281 C349.82726517 85.38467413 355.53779685 82.43305068 361.13696289 79.12597656 C362.5094519 78.31918457 362.5094519 78.31918457 363.90966797 77.49609375 C365.74065242 76.41332422 367.56498699 75.31921508 369.38183594 74.21289062 C374.70029306 71.07543364 378.73160469 69.30564332 384.94555664 69.16113281 C386.62792135 69.78712898 388.29795284 70.44865549 389.94555664 71.16113281 C394.30486838 70.74023375 397.31993265 68.93648617 401.00805664 66.66113281 C408.1162232 62.28687647 413.62162942 61.38182348 421.94555664 62.16113281 C429.21119564 63.96319493 433.69210626 68.15055905 437.94555664 74.16113281 C441.22286151 79.97090054 441.54571275 86.84264221 439.94555664 93.22363281 C436.25645288 103.7849166 427.45534999 109.16017855 417.94555664 114.16113281 C417.28555664 114.16113281 416.62555664 114.16113281 415.94555664 114.16113281 C415.93137695 114.74121094 415.91719727 115.32128906 415.90258789 115.91894531 C415.85489258 116.70011719 415.80719727 117.48128906 415.75805664 118.28613281 C415.70584961 119.4346875 415.70584961 119.4346875 415.65258789 120.60644531 C414.02511016 126.48694495 409.93072737 129.35444148 404.93383789 132.37207031 C403.0488218 133.43906055 401.15665932 134.49351032 399.25805664 135.53613281 C398.29577148 136.08140625 397.33348633 136.62667969 396.34204102 137.18847656 C389.248012 141.16113281 389.248012 141.16113281 386.94555664 141.16113281 C391.53816895 147.71011472 396.372229 153.98162941 401.44555664 160.16113281 C413.73689018 175.19073959 422.48314315 186.8838828 420.94555664 207.16113281 C419.94794284 211.81031257 418.44009609 216.19496154 416.82055664 220.66113281 C416.37892576 221.92340476 415.93878399 223.18619851 415.5 224.44946289 C414.28356596 227.92695184 413.03516695 231.39218249 411.77911377 234.85552979 C410.89468308 237.30184811 410.01963015 239.75137933 409.14624023 242.20166016 C407.28338137 247.42335803 405.39894502 252.63703023 403.50805664 257.84863281 C403.20373718 258.69280762 402.89941772 259.53698242 402.58587646 260.40673828 C401.71607599 262.81135304 400.83466182 265.21136926 399.94946289 267.61035156 C399.69041672 268.33087204 399.43137054 269.05139252 399.16447449 269.79374695 C396.74612349 276.27355341 396.74612349 276.27355341 393.94555664 278.16113281 C390.25805664 278.34863281 390.25805664 278.34863281 386.94555664 278.16113281 C386.78120117 278.97904297 386.78120117 278.97904297 386.61352539 279.81347656 C385.72658293 284.03186144 384.67893379 287.90701396 383.07055664 291.91113281 C382.22714803 294.09529494 382.22714803 294.09529494 381.94555664 296.16113281 C383.79105699 298.75968707 383.79105699 298.75968707 385.94555664 301.16113281 C385.89331984 308.44816611 382.91214232 314.65878284 380.22451782 321.33343506 C374.8766098 334.73955622 372.29385441 346.58118987 372.94555664 361.16113281 C373.55028809 361.20286621 374.15501953 361.24459961 374.77807617 361.28759766 C382.80531809 361.98091088 382.80531809 361.98091088 385.82055664 364.78613281 C386.35422852 365.25277344 386.88790039 365.71941406 387.43774414 366.20019531 C392.81410077 373.1922446 392.31392104 380.09800591 392.13305664 388.59863281 C392.11952148 389.80712891 392.10598633 391.015625 392.09204102 392.26074219 C392.0568561 395.22800364 392.0076236 398.19433219 391.94555664 401.16113281 C393.18821289 401.28230469 394.43086914 401.40347656 395.71118164 401.52832031 C398.84678423 401.92475994 401.11670304 402.35837592 403.69555664 404.28613281 C404.22665039 404.65996094 404.75774414 405.03378906 405.30493164 405.41894531 C410.65156699 411.09656285 411.5317497 416.12738072 411.44726562 423.62890625 C411.4553701 425.01309502 411.4553701 425.01309502 411.46363831 426.42524719 C411.47608613 429.45733282 411.45966582 432.48846195 411.44165039 435.52050781 C411.44180542 437.63324025 411.443295 439.74597298 411.44606018 441.85870361 C411.44744222 446.27686196 411.43491426 450.69469488 411.41210938 455.11279297 C411.38365582 460.78137384 411.3864836 466.44941707 411.39919949 472.11803818 C411.4061447 476.47599908 411.39838179 480.83383513 411.38594246 485.19178009 C411.38142159 487.2826108 411.38109668 489.37345487 411.38500786 491.4642868 C411.38791046 494.38011828 411.37146109 497.29520059 411.34960938 500.2109375 C411.35636185 501.51074303 411.35636185 501.51074303 411.36325073 502.83680725 C411.29135245 508.59579762 411.29135245 508.59579762 409.893013 510.881917 C406.90304793 512.84592024 403.8588754 512.57738691 400.39857483 512.54881287 C399.62295887 512.5541984 398.84734291 512.55958394 398.04822344 512.56513268 C395.44100597 512.57947651 392.83429164 512.57229287 390.22705078 512.56518555 C388.3611968 512.57088577 386.4953463 512.57784868 384.62950134 512.58598328 C379.55514205 512.60396842 374.48095517 512.60273624 369.40657353 512.59704089 C365.17427328 512.59395671 360.94200651 512.6000329 356.70971102 512.60607964 C346.72718151 512.6201409 336.74473756 512.61855032 326.76220703 512.60717773 C316.45509031 512.59569502 306.14823373 512.60977117 295.8411513 512.63657421 C286.99946921 512.65870784 278.15786893 512.66537386 269.3161611 512.6594978 C264.0320462 512.6561214 258.74809809 512.65858847 253.46400642 512.67574883 C248.49566418 512.69117864 243.52770825 512.68730659 238.55938148 512.66844368 C236.73403245 512.66474676 234.90865504 512.66789821 233.08333206 512.67832947 C230.5949457 512.69146618 228.10785206 512.68005806 225.61952209 512.66233826 C224.89393964 512.67194326 224.16835719 512.68154827 223.42078739 512.69144434 C220.20146851 512.64414305 218.21396969 512.33585187 215.49431515 510.56553745 C213.39039096 507.29925349 213.4639735 505.06435612 213.49145508 501.18945312 C213.49087097 500.49636551 213.49028687 499.80327789 213.48968506 499.08918762 C213.49246495 496.80536266 213.52354957 494.52285385 213.55493164 492.23925781 C213.56239444 490.65314446 213.56808719 489.06702187 213.57208252 487.480896 C213.587336 483.31152778 213.62661477 479.14271926 213.67089844 474.97357178 C213.71185766 470.71715872 213.73009489 466.460655 213.75024414 462.20410156 C213.79310981 453.85618881 213.86135704 445.50873049 213.94555664 437.16113281 C212.82941734 437.16481998 211.71327805 437.16850716 210.56331635 437.17230606 C183.40525701 437.26110409 156.24721651 437.32683577 129.08904266 437.3683815 C115.95554953 437.38900672 102.82215229 437.41712675 89.6887207 437.46289062 C78.24162943 437.50275938 66.7946076 437.52856591 55.34744883 437.53748679 C49.28624785 437.54270141 43.22524557 437.55495724 37.16410828 437.58405304 C31.45797583 437.6112225 25.75212376 437.61957458 20.04593277 437.61356354 C17.95295309 437.61466308 15.85996395 437.62260765 13.76704025 437.63795471 C10.90558936 437.6579063 8.04519196 437.65305291 5.18371582 437.64215088 C4.35879182 437.65380224 3.53386783 437.66545361 2.68394613 437.67745805 C-2.95857535 437.61949644 -7.36652633 436.38820353 -12.05444336 433.16113281 C-17.71586669 426.33839188 -17.26163762 419.30811668 -17.30444336 410.84863281 C-17.33538086 409.3375293 -17.33538086 409.3375293 -17.36694336 407.79589844 C-17.39962119 401.52583992 -16.7934067 396.83377253 -14.05444336 391.16113281 C-10.14235581 387.71476997 -6.03257107 386.45961581 -1.16772461 384.93066406 C3.07257875 383.38659796 5.3455559 381.12541971 7.69555664 377.34863281 C10.16156668 371.06030722 10.31015331 366.4994036 7.95727539 360.23925781 C5.3706655 354.92622127 1.20415094 352.42954604 -4.05444336 350.16113281 C-4.72088867 349.95101563 -5.38733398 349.74089844 -6.07397461 349.52441406 C-10.02769982 348.25540764 -11.75173335 347.52593719 -14.49194336 344.22363281 C-17.12474473 339.06334212 -17.22657914 334.46668181 -17.25756836 328.73925781 C-17.26326843 327.92044128 -17.26896851 327.10162476 -17.27484131 326.25799561 C-17.28427421 324.52650233 -17.29081849 322.79499123 -17.29467773 321.06347656 C-17.30435826 318.43424543 -17.33538691 315.80580483 -17.36694336 313.17675781 C-17.37347674 311.48926242 -17.37872589 309.80176148 -17.38256836 308.11425781 C-17.39491516 307.3368927 -17.40726196 306.55952759 -17.41998291 305.75860596 C-17.39791127 300.26276714 -16.34525372 296.17629794 -14.05444336 291.16113281 C-10.53184512 287.9907944 -6.84619067 286.7135489 -2.42944336 285.22363281 C3.07977479 283.28271585 5.35678187 281.47430947 7.90649414 276.15722656 C10.26827665 270.35370118 10.14716242 265.99538812 7.94555664 260.16113281 C5.01421465 253.94668778 1.00032826 252.52348633 -5.05444336 250.16113281 C-13.94614843 246.25370533 -13.94614843 246.25370533 -16.05444336 242.16113281 C-17.23450612 237.69323205 -17.23256895 233.23162917 -17.25756836 228.64160156 C-17.26326843 227.82419998 -17.26896851 227.0067984 -17.27484131 226.16462708 C-17.28426176 224.43911013 -17.29081351 222.71357544 -17.29467773 220.98803711 C-17.3043729 218.3676771 -17.33541948 215.74810559 -17.36694336 213.12792969 C-17.37347558 211.4449916 -17.37872519 209.76204794 -17.38256836 208.07910156 C-17.40108856 206.91775948 -17.40108856 206.91775948 -17.41998291 205.73295593 C-17.39786352 200.24901801 -16.3813945 196.15129382 -14.05444336 191.16113281 C-10.18718277 188.31988013 -6.33936879 186.89254673 -1.86694336 185.22363281 C3.25255416 183.20686106 5.4999784 181.16348762 7.91040039 176.15722656 C10.23853812 170.4118223 10.36197683 165.89750421 7.94555664 160.16113281 C4.38921557 153.40137001 -1.12574674 151.81278899 -8.04272461 149.40722656 C-12.25366447 147.66495702 -13.77602364 146.06699519 -16.05444336 142.16113281 C-17.28995706 137.70337512 -17.23265636 133.19881309 -17.25756836 128.60644531 C-17.26326843 127.78667206 -17.26896851 126.9668988 -17.27484131 126.12228394 C-17.28426081 124.39257079 -17.29081313 122.66283995 -17.29467773 120.93310547 C-17.3043857 118.30176205 -17.33543835 115.67119957 -17.36694336 113.04003906 C-17.37347426 111.35384575 -17.37872439 109.66764689 -17.38256836 107.98144531 C-17.39491516 107.20205597 -17.40726196 106.42266663 -17.41998291 105.61965942 C-17.3952169 99.47893644 -16.04637976 95.02952123 -12.49194336 89.91113281 C-9.96083992 88.09393034 -8.15824504 87.5319733 -5.17944336 86.72363281 C0.94820407 85.04507255 4.34282583 82.75866206 7.75805664 77.22363281 C10.10683985 71.16624453 10.45126406 66.25993011 7.94555664 60.16113281 C4.33064503 53.43183581 -1.11308708 51.81719173 -8.04272461 49.40722656 C-12.25366447 47.66495702 -13.77602364 46.06699519 -16.05444336 42.16113281 C-17.41818099 36.76700364 -17.27645951 31.37894121 -17.30444336 25.84863281 C-17.33538086 24.3375293 -17.33538086 24.3375293 -17.36694336 22.79589844 C-17.40072834 16.31340467 -17.29654954 9.63376697 -12.60205078 4.60546875 C-8.20261746 0.829761 -5.6815448 0.03453037 0 0 Z M278.65649414 202.90087891 C274.58695141 208.27699571 276.18416523 217.0233065 276.44555664 223.47363281 C276.48570168 225.18513885 276.52220071 226.89673456 276.55493164 228.60839844 C276.64293305 232.79485858 276.78086505 236.97701622 276.94555664 241.16113281 C280.51443361 236.80333124 283.39521916 232.34573159 286.19555664 227.47363281 C286.65446289 226.72146484 287.11336914 225.96929687 287.58618164 225.19433594 C290.85225515 219.48356752 291.83382175 214.71174207 290.94555664 208.16113281 C290.14419449 205.3405565 289.14136871 202.85170997 287.94555664 200.16113281 C284.11406487 200.16113281 281.87017393 200.81507712 278.65649414 202.90087891 Z " fill="#020202" transform="translate(44.054443359375,-0.1611328125)"/>
<path d="M0 0 C6.6 0 13.2 0 20 0 C20.99 1.98 21.98 3.96 23 6 C25.95945335 7.47972667 28.6179564 7.14176792 31.92214966 7.15821838 C33.00277076 7.16562535 33.00277076 7.16562535 34.10522258 7.17318195 C36.53124625 7.18860104 38.95724337 7.19692946 41.38330078 7.20532227 C43.11756628 7.21489733 44.85182942 7.22490719 46.58609009 7.23532104 C51.30481442 7.26241649 56.0235488 7.28340089 60.74230814 7.30332303 C65.66976673 7.32515403 70.59719419 7.3525568 75.52462769 7.37937927 C84.86019304 7.42934528 94.19577565 7.47426958 103.53137481 7.51740164 C114.1575999 7.56674066 124.78379375 7.62167113 135.40998864 7.67708123 C157.27329667 7.79096125 179.13663452 7.89778714 201 8 C201.25628785 15.8933594 201.45100806 23.78494725 201.56993389 31.68145466 C201.62705252 35.3494466 201.70433002 39.01456845 201.82983398 42.6809082 C201.95047538 46.2279077 202.01534456 49.77217152 202.04364967 53.3210659 C202.07349979 55.31525024 202.15920385 57.3083508 202.2462616 59.30085754 C202.25061577 65.80169225 201.65674083 70.00353451 197.19070911 74.74900341 C194.88959845 76.95683496 192.47689782 78.99289464 190 81 C188.62240496 82.20537394 187.24673914 83.4129661 185.875 84.625 C185.24335938 85.16382812 184.61171875 85.70265625 183.9609375 86.2578125 C181.71368115 88.2543789 179.61105073 90.36012946 177.5 92.5 C166.66865417 103.44378194 166.66865417 103.44378194 162 105 C161.44794435 104.26907749 161.44794435 104.26907749 160.88473606 103.52338886 C158.19591115 101.35007345 156.27646042 101.62526549 152.84422302 101.6257782 C151.55562378 101.61876389 150.26702454 101.61174957 148.93937683 101.60452271 C147.50832975 101.61195064 146.07728421 101.61968179 144.64624023 101.62768555 C143.14167021 101.62525804 141.63710179 101.62153911 140.13253784 101.61662292 C136.04378273 101.60720545 131.95526664 101.61664602 127.86653018 101.62995505 C123.59266538 101.64125601 119.31881258 101.63716315 115.04493713 101.63520813 C107.86821579 101.63432482 100.69158885 101.64541405 93.51489258 101.66381836 C85.20955851 101.68499462 76.90436267 101.68849438 68.59900707 101.6822564 C60.61824808 101.67656843 52.63753792 101.68220118 44.65678596 101.69342995 C41.25609499 101.69808264 37.85543382 101.69894691 34.45474052 101.6968441 C30.4533545 101.69496507 26.45210986 101.70303521 22.45075607 101.7189045 C20.97933474 101.72315891 19.50789909 101.72399017 18.03647423 101.72121429 C16.03390742 101.71800866 14.03133231 101.72826934 12.02879333 101.73930359 C10.90625876 101.74135646 9.78372419 101.74340933 8.62717342 101.74552441 C5.84185593 101.73438445 5.84185593 101.73438445 4 104 C3.52786327 108.06095958 3.52786327 108.06095958 4 112 C7.19421106 115.07665476 9.55417444 115.37962357 13.90985107 115.39872742 C15.7229351 115.41753464 15.7229351 115.41753464 17.57264709 115.4367218 C18.90878323 115.43554779 20.24491914 115.43408865 21.58105469 115.43237305 C22.99050252 115.44139083 24.3999425 115.4517181 25.80937195 115.46325684 C29.63341397 115.49085131 33.45730728 115.50011462 37.28143597 115.50611091 C41.27868742 115.51548825 45.27582753 115.54169109 49.27301025 115.56611633 C56.84124719 115.6098027 64.40946255 115.6383365 71.97778726 115.66143972 C80.59446687 115.68847996 89.21103458 115.73239217 97.82763433 115.77772844 C115.55169717 115.8706053 133.27578959 115.94227209 151 116 C150.07014208 117.10205514 149.13775303 118.20197487 148.2043457 119.30102539 C147.68540237 119.91377823 147.16645905 120.52653107 146.63179016 121.15785217 C144.00530661 124.1229215 141.11027957 126.76935355 138.1875 129.4375 C136.86026172 130.66231047 135.53345587 131.88758967 134.20703125 133.11328125 C133.51947754 133.7470166 132.83192383 134.38075195 132.12353516 135.03369141 C127.79413928 139.04253877 123.51256008 143.10257668 119.2265625 147.15771484 C115.90978062 150.28895851 112.57875311 153.39601788 109.17578125 156.43359375 C108.5842627 156.9651709 107.99274414 157.49674805 107.38330078 158.04443359 C106.29901064 159.01508089 105.20811009 159.97842598 104.10888672 160.93212891 C99.38363993 165.17466392 96.18749029 169.21108192 95.75 175.71875 C95.8325 176.9665625 95.915 178.214375 96 179.5 C96.33107841 184.50756091 96.17146485 188.06728037 93.40380859 192.39746094 C90.7506123 195.42625755 87.36489796 197.08143374 83.8125 198.875 C82.36024863 199.64241892 80.90840343 200.41060712 79.45703125 201.1796875 C78.31621094 201.78039062 77.17539063 202.38109375 76 203 C75.67 203.33 75.34 203.66 75 204 C72.89956046 204.11338707 70.79532587 204.15686564 68.69189453 204.17358398 C67.70403961 204.1836145 67.70403961 204.1836145 66.69622803 204.19384766 C65.26171873 204.20792782 63.82718663 204.21981236 62.39264297 204.22979546 C60.12332157 204.2461622 57.85416878 204.26939837 55.58493042 204.29469299 C49.13141235 204.36558526 42.67782468 204.42559188 36.22412109 204.47680664 C32.28065491 204.50858371 28.33738063 204.54985842 24.39406967 204.59700203 C22.88939744 204.613033 21.38468094 204.62534951 19.87994766 204.63390923 C17.77539833 204.64605182 15.67130058 204.67019705 13.56689453 204.69702148 C11.76939255 204.71248268 11.76939255 204.71248268 9.93557739 204.72825623 C6.81046484 204.78283576 6.81046484 204.78283576 4 207 C3.46926747 211.07210885 3.46926747 211.07210885 4 215 C7.02727839 217.83541054 9.13099219 218.38265767 13.22753906 218.43237305 C14.78870453 218.46206429 14.78870453 218.46206429 16.38140869 218.49235535 C17.49820007 218.49874527 18.61499146 218.50513519 19.765625 218.51171875 C20.91415955 218.52966995 22.06269409 218.54762115 23.24603271 218.56611633 C26.91398448 218.62029341 30.58180555 218.65413969 34.25 218.6875 C36.73699738 218.72066644 39.2239775 218.75515546 41.7109375 218.79101562 C47.80717448 218.87602426 53.90342822 218.94434296 60 219 C59.66750244 219.90556641 59.33500488 220.81113281 58.99243164 221.74414062 C58.11772402 224.61378413 57.81549752 226.19549134 58.12109375 229.09375 C58.98496183 240.54000208 58.98496183 240.54000208 56.56640625 244.125 C54.13318828 245.74407888 51.68420998 246.83592934 49 248 C46.87832568 249.13616288 44.78560711 250.3164437 42.69335938 251.50585938 C41.2439378 252.32801569 39.78691135 253.13692254 38.32226562 253.93164062 C34.52570199 255.79241629 34.52570199 255.79241629 32 259 C31.60633741 262.6216958 31.54774515 264.36349317 33.6875 267.375 C36.6001293 269.42171248 37.47753153 269.48750581 41 269 C43.92667792 267.6342928 46.63546561 265.9550249 49.375 264.25 C51.5573591 262.92361921 53.7402805 261.59820282 55.92480469 260.27539062 C57.28240422 259.44102592 58.62766165 258.58615028 59.95800781 257.70898438 C61.7890625 256.546875 61.7890625 256.546875 65 255 C67.19140625 255.59375 67.19140625 255.59375 69 257 C69.64839844 257.4021875 70.29679688 257.804375 70.96484375 258.21875 C72.27811693 259.07172743 73.59062017 259.92589148 74.90234375 260.78125 C82.10656128 264.96694063 89.73312245 264.99801137 97.82421875 263.46484375 C101.85132595 262.336267 105.35368405 260.90477869 108.9375 258.75 C110.4534375 257.88375 110.4534375 257.88375 112 257 C115.84209066 258.28069689 116.16285874 259.53058922 118.1171875 263.01171875 C118.71845459 264.07011963 119.31972168 265.12852051 119.93920898 266.21899414 C120.57802002 267.36360107 121.21683105 268.50820801 121.875 269.6875 C122.87470962 271.45607479 123.87763348 273.22280023 124.88078308 274.98942566 C125.56525624 276.19523081 126.2486876 277.4016279 126.93110657 278.6085968 C130.8921841 285.60517536 135.01248757 292.50653965 139.13818359 299.40698242 C139.64816895 300.26396729 140.1581543 301.12095215 140.68359375 302.00390625 C141.13275146 302.75486572 141.58190918 303.5058252 142.04467773 304.27954102 C143 306 143 306 143 307 C142.30185779 307.00238835 141.60371557 307.00477671 140.88441753 307.00723743 C123.90912259 307.06633386 106.93398063 307.14184933 89.95884228 307.23571491 C81.74983693 307.28071003 73.54087533 307.32011602 65.33178711 307.34643555 C58.17802474 307.36938565 51.02440037 307.40274994 43.87074739 307.44870156 C40.08175586 307.47267435 36.29290136 307.49137643 32.50383568 307.49761391 C28.93903676 307.50364659 25.37458861 307.52357972 21.80991936 307.55427551 C19.87465362 307.56729264 17.93930606 307.56548084 16.0039978 307.5632782 C14.85554886 307.57581635 13.70709991 307.58835449 12.52384949 307.60127258 C11.5237041 307.60588155 10.52355871 307.61049051 9.49310589 307.61523914 C6.97245093 307.81200466 6.97245093 307.81200466 5.17819691 309.30617046 C3.20238731 312.14668433 3.64285186 314.66661735 4 318 C5.09104789 319.80985242 5.09104789 319.80985242 7 321 C9.71107395 321.4381992 9.71107395 321.4381992 12.8361969 321.34489441 C14.05433578 321.34587128 15.27247467 321.34684814 16.52752686 321.34785461 C17.87976294 321.3339212 19.23199678 321.31976892 20.58422852 321.30541992 C22.00684788 321.30133967 23.42947196 321.29868918 24.85209656 321.29736328 C27.91820171 321.2921427 30.98410047 321.27816226 34.05014229 321.257864 C38.90489467 321.2271873 43.75940865 321.22453817 48.61424255 321.22737122 C62.4204782 321.23168935 76.22642462 321.20842407 90.0324707 321.1340332 C97.65588872 321.09319547 105.27880537 321.08110836 112.9023146 321.10027009 C117.72145657 321.11079694 122.53872635 321.08641994 127.35759461 321.03589761 C130.36839618 321.01287971 133.37839831 321.02362523 136.38919258 321.04361725 C137.77667622 321.0462277 139.16426726 321.03534851 140.55150986 321.00935555 C150.73752141 320.82935277 155.70082046 323.0278077 163 330 C165.29144009 331.58637878 167.62501698 332.88321568 170.06640625 334.24609375 C170.67137436 334.58753922 171.27634247 334.92898468 171.89964294 335.28077698 C173.78266104 336.34149152 175.67213683 337.38994297 177.5625 338.4375 C179.48343104 339.51265336 181.40293192 340.59030693 183.32176208 341.66920471 C185.03703622 342.63202512 186.75584942 343.58853266 188.47485352 344.54467773 C191 346 191 346 192 347 C192.14115161 349.67058851 192.04247107 352.32432238 192 355 C191.33613281 355.09796875 190.67226563 355.1959375 189.98828125 355.296875 C184.68589374 356.19479756 180.77074166 356.88646364 177 361 C174.48843313 365.30126465 173.60643003 368.52993871 173.48828125 373.4921875 C173.45283203 374.69101562 173.41738281 375.88984375 173.38085938 377.125 C173.34702148 378.98125 173.34702148 378.98125 173.3125 380.875 C173.27833984 382.13570313 173.24417969 383.39640625 173.20898438 384.6953125 C173.12674833 387.79678616 173.05751532 390.89798569 173 394 C172.24654297 394.25177002 171.49308594 394.50354004 170.71679688 394.76293945 C169.72744141 395.10542725 168.73808594 395.44791504 167.71875 395.80078125 C166.73841797 396.13505127 165.75808594 396.46932129 164.74804688 396.8137207 C160.28512669 398.74027802 158.67435211 400.92161303 156 405 C154.515 409.455 154.515 409.455 153 414 C82.05 414 11.1 414 -62 414 C-62 407.73 -62 401.46 -62 395 C-59.834375 394.01 -57.66875 393.02 -55.4375 392 C-45.84606501 387.31337626 -40.72476236 381.35682711 -36.8828125 371.28125 C-34.32851125 361.78738695 -35.20727878 352.57016193 -40 344 C-45.29595709 335.01779921 -52.07579724 330.8354865 -62 328 C-62 317.11 -62 306.22 -62 295 C-57.38 292.69 -52.76 290.38 -48 288 C-40.66987191 281.1141221 -36.6305437 273.3081048 -35.76171875 263.23828125 C-35.49524506 252.73360805 -38.32423668 245.09438206 -45.0078125 236.9765625 C-49.8833723 232.13924238 -55.57158699 230.14280434 -62 228 C-62 217.11 -62 206.22 -62 195 C-57.38 192.69 -52.76 190.38 -48 188 C-39.85436036 180.34803549 -36.01985041 171.59961739 -35.625 160.4375 C-35.69398504 152.44509069 -38.47443688 145.08862943 -43.1875 138.625 C-48.78617266 133.39957218 -54.76391056 130.41202981 -62 128 C-62 117.11 -62 106.22 -62 95 C-57.38 92.69 -52.76 90.38 -48 88 C-41.10554646 81.52339213 -36.55207172 73.67916273 -35.76171875 64.1171875 C-35.53859689 54.37028527 -37.44976258 46.41196523 -43.4609375 38.59375 C-48.78412508 33.08141362 -54.86583583 30.67531156 -62 28 C-62 21.4 -62 14.8 -62 8 C-59.44137207 7.98598145 -59.44137207 7.98598145 -56.83105469 7.97167969 C-51.19102586 7.93613815 -45.55136873 7.88233161 -39.91161728 7.81609726 C-36.4926539 7.7766116 -33.07394846 7.74442901 -29.65478516 7.72900391 C-25.72264629 7.71094309 -21.79122235 7.66099649 -17.859375 7.609375 C-16.63321472 7.60814636 -15.40705444 7.60691772 -14.14373779 7.60565186 C-13.00285706 7.58593323 -11.86197632 7.5662146 -10.68652344 7.54589844 C-9.68280701 7.53701599 -8.67909058 7.52813354 -7.6449585 7.51898193 C-4.27913151 6.85855441 -3.10645042 5.6571446 -1 3 C-0.67 2.01 -0.34 1.02 0 0 Z " fill="#EEECEE" transform="translate(105,7)"/>
<path d="M0 0 C3.0610083 1.17073805 4.46616964 3.39611842 6.49536133 5.92675781 C6.92445801 6.457771 7.35355469 6.98878418 7.7956543 7.53588867 C9.18511737 9.26230532 10.55940561 11.00008904 11.93286133 12.73925781 C12.87138485 13.91395959 13.8101874 15.08843849 14.74926758 16.26269531 C34.2354953 40.74547831 34.2354953 40.74547831 32.93286133 55.73925781 C31.89432046 60.3337896 30.3470449 64.64992516 28.68286133 69.05175781 C28.24482178 70.27072754 27.80678223 71.48969727 27.35546875 72.74560547 C25.10599522 79.00123865 22.75431808 85.21886959 20.41390991 91.44090271 C19.29089578 94.43380395 18.17796838 97.43042103 17.06506348 100.42709351 C16.25914319 102.57748446 15.43341855 104.71948971 14.60571289 106.86157227 C14.10596471 108.1929248 13.606907 109.52453677 13.10864258 110.85644531 C12.66431885 112.01772949 12.21999512 113.17901367 11.76220703 114.37548828 C10.8048765 118.25835553 10.93740289 120.87724501 11.93286133 124.73925781 C12.92286133 125.39925781 13.91286133 126.05925781 14.93286133 126.73925781 C14.47421265 133.46610516 12.54657509 140.01754436 8.93286133 145.73925781 C6.83822125 146.69514515 5.16756314 146.89853317 2.89086914 147.11474609 C0.81462921 147.55260554 0.81462921 147.55260554 -0.14428711 149.35449219 C-0.42304688 150.06927734 -0.70180664 150.7840625 -0.98901367 151.52050781 C-1.31909424 152.33994873 -1.6491748 153.15938965 -1.98925781 154.00366211 C-2.3449585 154.90640869 -2.70065918 155.80915527 -3.06713867 156.73925781 C-3.47504639 157.66971924 -3.8829541 158.60018066 -4.30322266 159.55883789 C-5.68056897 162.70077247 -6.96920717 165.87121143 -8.25463867 169.05175781 C-8.70516602 170.06431641 -9.15569336 171.076875 -9.61987305 172.12011719 C-14.98106948 185.67984489 -13.49652671 195.76212279 -14.06713867 211.73925781 C-44.09713867 211.73925781 -74.12713867 211.73925781 -105.06713867 211.73925781 C-105.39713867 206.45925781 -105.72713867 201.17925781 -106.06713867 195.73925781 C-108.8551571 192.95123939 -110.99193982 191.52362639 -114.40698242 189.66503906 C-115.46481934 189.08399414 -116.52265625 188.50294922 -117.61254883 187.90429688 C-118.73193848 187.29295898 -119.85132813 186.68162109 -121.00463867 186.05175781 C-136.12481331 177.64903688 -136.12481331 177.64903688 -141.19213867 174.48925781 C-141.9990918 173.98910156 -142.80604492 173.48894531 -143.63745117 172.97363281 C-150.81773634 166.37054099 -155.37188379 157.01029584 -160.12963867 148.61425781 C-161.11764038 146.88599214 -162.10565436 145.15773328 -163.09457397 143.42999268 C-163.76685907 142.25513777 -164.43859103 141.07996617 -165.10977173 139.90447998 C-168.39082005 134.16036935 -171.72559209 128.44830847 -175.06713867 122.73925781 C-181.90594618 111.03727667 -188.68665768 99.30220995 -195.44604492 87.55419922 C-196.87905901 85.06584796 -198.31594364 82.57979557 -199.75463867 80.09472656 C-200.48393061 78.8304759 -201.21311054 77.56616062 -201.94213867 76.30175781 C-202.53768555 75.27179688 -203.13323242 74.24183594 -203.74682617 73.18066406 C-206.62518407 67.85825671 -206.88991385 62.66482138 -206.06713867 56.73925781 C-203.83629473 51.47287265 -200.34628869 46.85615716 -195.12182617 44.32519531 C-189.58787121 42.74707127 -184.07786822 43.0317789 -178.69213867 44.92675781 C-173.59554261 48.44583604 -169.7081782 53.20576649 -165.75463867 57.92675781 C-165.27172363 58.50063232 -164.78880859 59.07450684 -164.29125977 59.66577148 C-160.89816861 63.71190028 -157.57434914 67.80835243 -154.29370117 71.94628906 C-150.8893984 76.21659869 -147.43560079 80.44651231 -143.9855957 84.67993164 C-143.46594238 85.31825928 -142.94628906 85.95658691 -142.41088867 86.61425781 C-141.59563721 87.59265625 -141.59563721 87.59265625 -140.76391602 88.59082031 C-139.06713867 90.73925781 -139.06713867 90.73925781 -137.35864258 93.32519531 C-131.94727889 101.13381744 -126.55897151 102.89816954 -117.44213867 104.73925781 C-115.05389559 105.27994375 -112.66586699 105.82157808 -110.27807617 106.36425781 C-109.2292627 106.58339844 -108.18044922 106.80253906 -107.09985352 107.02832031 C-104.0100797 107.75263374 -101.06976358 108.71793868 -98.06713867 109.73925781 C-95.16426953 110.18346911 -93.06665449 110.02953354 -90.06713867 109.73925781 C-86.62704632 106.91348262 -84.54294067 103.52359179 -82.28198242 99.72363281 C-81.93962051 99.14897278 -81.59725861 98.57431274 -81.24452209 97.98223877 C-80.52478258 96.77035923 -79.80806987 95.55667745 -79.09423828 94.34130859 C-78.01301054 92.50348792 -76.91877804 90.67389874 -75.82299805 88.84472656 C-69.78987625 78.68917615 -64.58618712 68.85470191 -66.06713867 56.73925781 C-67.21452962 52.98014831 -68.52918306 49.39780659 -69.97338867 45.74316406 C-71.06713867 42.73925781 -71.06713867 42.73925781 -71.06713867 39.73925781 C-70.34461914 39.32788574 -69.62209961 38.91651367 -68.87768555 38.49267578 C-56.01606033 31.16609932 -43.16393687 23.82524098 -30.37963867 16.36425781 C-28.9154248 15.51214722 -28.9154248 15.51214722 -27.42163086 14.64282227 C-22.90113456 12.0061214 -18.4006355 9.34436519 -13.93823242 6.61035156 C-13.152146 6.1332373 -12.36605957 5.65612305 -11.55615234 5.16455078 C-10.11096231 4.2849247 -8.67179127 3.39529591 -7.24023438 2.49365234 C-2.5895532 -0.32663787 -2.5895532 -0.32663787 0 0 Z " fill="#FECCBD" transform="translate(416.067138671875,150.2607421875)"/>
<path d="M0 0 C0.65789851 -0.00467997 1.31579701 -0.00935994 1.99363184 -0.01418173 C4.20246072 -0.02616658 6.41067314 -0.01666141 8.61950684 -0.00723267 C10.20127221 -0.01129684 11.78303474 -0.01663785 13.36479187 -0.02316284 C17.66433587 -0.0368607 21.96366435 -0.03152767 26.2632122 -0.02202559 C30.7581631 -0.01444175 35.25309527 -0.02147104 39.74804688 -0.02618408 C47.29719361 -0.03164536 54.84625236 -0.02444027 62.39538574 -0.01016235 C71.12903281 0.00616489 79.8624698 0.00087664 88.59611177 -0.01564157 C96.08831982 -0.02924584 103.58046454 -0.03118129 111.07268095 -0.02332556 C115.55022342 -0.01864321 120.02766708 -0.01803959 124.50520325 -0.02793503 C128.71429108 -0.03658705 132.92310747 -0.03061528 137.13216591 -0.01325226 C138.67895875 -0.00927794 140.22577435 -0.01043757 141.77255821 -0.01704025 C143.88017698 -0.02520897 145.98691983 -0.01499218 148.09448242 0 C149.27508995 0.00113108 150.45569748 0.00226215 151.67208099 0.00342751 C154.54724121 0.38095093 154.54724121 0.38095093 157.54724121 3.38095093 C157.54724121 29.12095093 157.54724121 54.86095093 157.54724121 81.38095093 C102.43724121 81.38095093 47.32724121 81.38095093 -9.45275879 81.38095093 C-9.45275879 55.64095093 -9.45275879 29.90095093 -9.45275879 3.38095093 C-5.8195273 -0.25228056 -4.96784454 0.00475943 0 0 Z " fill="#7FB5FB" transform="translate(282.4527587890625,415.6190490722656)"/>
<path d="M0 0 C1.70166016 2.43676758 1.70166016 2.43676758 3.5390625 5.64453125 C3.86538666 6.21072678 4.19171082 6.7769223 4.52792358 7.36027527 C5.21630312 8.55907908 5.90025046 9.76043725 6.58007812 10.96411133 C7.61833234 12.80070541 8.6711472 14.62830304 9.7265625 16.45507812 C15.31098944 26.21613624 15.31098944 26.21613624 16 30 C15.33806641 30.3810791 14.67613281 30.7621582 13.99414062 31.15478516 C10.82902985 32.97750122 7.66435373 34.80097008 4.5 36.625 C3.91377869 36.96290558 3.32755737 37.30081116 2.72357178 37.6489563 C-5.49146821 42.38550695 -13.69042521 47.14843926 -21.875 51.9375 C-31.8542045 57.77360834 -41.88270341 63.52074736 -51.92480469 69.24755859 C-60.0109943 73.85940148 -68.07733335 78.50382753 -76.12890625 83.17578125 C-81.93417842 86.54412298 -87.74844703 89.89684463 -93.5625 93.25 C-94.65715576 93.88139893 -95.75181152 94.51279785 -96.87963867 95.16333008 C-101.38416492 97.76142542 -105.8888652 100.35921895 -110.39355469 102.95703125 C-112.63797918 104.25141764 -114.88228354 105.54601234 -117.12646484 106.84082031 C-119.31352963 108.10190618 -121.50134172 109.36169701 -123.68994141 110.62011719 C-128.73040363 113.52091363 -133.75673311 116.44045836 -138.75 119.421875 C-139.63115479 119.94426758 -140.51230957 120.46666016 -141.42016602 121.00488281 C-143.05334945 121.97487751 -144.6817788 122.95293914 -146.30444336 123.94042969 C-148.15918417 125.03788961 -150.07540109 126.03025735 -152 127 C-156.04534148 125.65155284 -157.64998977 122.91068569 -160.125 119.625 C-161.10313432 118.35076937 -162.0823165 117.0773425 -163.0625 115.8046875 C-163.55234375 115.1662793 -164.0421875 114.52787109 -164.546875 113.87011719 C-167.38739623 110.21447327 -170.36092786 106.66906186 -173.3203125 103.109375 C-175 101 -175 101 -176 99 C-91.5 50.25 -91.5 50.25 -88.24951172 48.37475586 C-86.08442929 47.12564482 -83.91939018 45.87645871 -81.75439453 44.62719727 C-76.31384294 41.48797691 -70.87252784 38.35009437 -65.4296875 35.21484375 C-54.79215184 29.08562338 -44.16523419 22.93925355 -33.5625 16.75 C-32.58240967 16.17942871 -31.60231934 15.60885742 -30.5925293 15.02099609 C-25.84100519 12.25315664 -21.10139176 9.46821532 -16.3828125 6.64453125 C-15.50423584 6.12342773 -14.62565918 5.60232422 -13.72045898 5.06542969 C-12.0743777 4.08872835 -10.43295535 3.10411663 -8.79711914 2.11035156 C-8.07387451 1.68334961 -7.35062988 1.25634766 -6.60546875 0.81640625 C-5.97793701 0.43943604 -5.35040527 0.06246582 -4.70385742 -0.32592773 C-3 -1 -3 -1 0 0 Z " fill="#5665CA" transform="translate(427,87)"/>
<path d="M0 0 C3.06952628 1.37839105 4.53630849 3.50260177 6.6328125 6.1171875 C7.06190918 6.64820068 7.49100586 7.17921387 7.93310547 7.72631836 C9.32256854 9.45273501 10.69685678 11.19051872 12.0703125 12.9296875 C13.00883602 14.10438928 13.94763857 15.27886818 14.88671875 16.453125 C34.37294647 40.93590799 34.37294647 40.93590799 33.0703125 55.9296875 C32.03177163 60.52421929 30.48449608 64.84035485 28.8203125 69.2421875 C28.38227295 70.46115723 27.9442334 71.68012695 27.49291992 72.93603516 C25.2434464 79.19166833 22.89176925 85.40929927 20.55136108 91.6313324 C19.42834695 94.62423363 18.31541955 97.62085072 17.20251465 100.61752319 C16.39659436 102.76791415 15.57086972 104.9099194 14.74316406 107.05200195 C14.24341589 108.38335448 13.74435817 109.71496646 13.24609375 111.046875 C12.57960815 112.78880127 12.57960815 112.78880127 11.8996582 114.56591797 C10.94232767 118.44878521 11.07485406 121.0676747 12.0703125 124.9296875 C13.5553125 125.9196875 13.5553125 125.9196875 15.0703125 126.9296875 C14.61166382 133.65653484 12.68402626 140.20797405 9.0703125 145.9296875 C6.97567242 146.88557484 5.30501431 147.08896286 3.02832031 147.30517578 C0.95208038 147.74303522 0.95208038 147.74303522 -0.00683594 149.54492188 C-0.2855957 150.25970703 -0.56435547 150.97449219 -0.8515625 151.7109375 C-1.18164307 152.53037842 -1.51172363 153.34981934 -1.85180664 154.1940918 C-2.38535767 155.54821167 -2.38535767 155.54821167 -2.9296875 156.9296875 C-3.33759521 157.86014893 -3.74550293 158.79061035 -4.16577148 159.74926758 C-5.5431178 162.89120216 -6.83175599 166.06164112 -8.1171875 169.2421875 C-8.56771484 170.25474609 -9.01824219 171.26730469 -9.48242188 172.31054688 C-14.8436183 185.87027457 -13.35907553 195.95255247 -13.9296875 211.9296875 C-43.9596875 211.9296875 -73.9896875 211.9296875 -104.9296875 211.9296875 C-104.9296875 206.9796875 -104.9296875 202.0296875 -104.9296875 196.9296875 C-104.5996875 196.9296875 -104.2696875 196.9296875 -103.9296875 196.9296875 C-103.9296875 201.5496875 -103.9296875 206.1696875 -103.9296875 210.9296875 C-81.8196875 210.9296875 -59.7096875 210.9296875 -36.9296875 210.9296875 C-36.9296875 203.0096875 -36.9296875 195.0896875 -36.9296875 186.9296875 C-35.61386576 181.57509861 -34.3752275 177.27937534 -32.3046875 172.3046875 C-31.80932216 171.02696225 -31.31817725 169.74759441 -30.83081055 168.46679688 C-29.78472151 165.73163115 -28.71850498 163.00561026 -27.63720703 160.28417969 C-24.84110321 153.20787219 -22.2636301 146.04890337 -19.64941406 138.90396118 C-18.74327059 136.43264141 -17.83159897 133.96343397 -16.91796875 131.49487305 C-13.48192869 122.2076529 -10.12871039 112.89969685 -6.91870117 103.53149414 C-3.40394356 93.31128365 0.32327049 83.16799483 4.03564453 73.01831055 C4.28763611 72.32864197 4.53962769 71.63897339 4.79925537 70.92840576 C5.48816322 69.04366004 6.1783647 67.1593873 6.86865234 65.27514648 C10.7922965 54.35159998 11.30849594 45.05920458 6.6328125 34.1796875 C3.84816411 28.93491742 -0.27645109 24.592479 -4.15625 20.140625 C-7.58652746 16.20320179 -10.77822058 12.09220524 -13.9296875 7.9296875 C-4.39523582 -0.16015029 -4.39523582 -0.16015029 0 0 Z " fill="#E8AC9B" transform="translate(415.9296875,150.0703125)"/>
<path d="M0 0 C7.51596485 5.74344022 13.30139945 14.16565263 18.55078125 21.94921875 C13.8963638 26.04510611 8.63295475 28.83947013 3.23828125 31.82421875 C-4.97385965 36.41571507 -13.14384076 41.06797053 -21.26171875 45.82421875 C-32.86845761 52.61838428 -44.51315071 59.34511897 -56.16699219 66.05810547 C-62.66769838 69.8036031 -69.16546907 73.5541914 -75.66357422 77.30419922 C-80.68575577 80.20216764 -85.70848941 83.09916162 -90.73364258 85.99197388 C-92.49967397 87.00869073 -94.26549306 88.02577533 -96.03125 89.04296875 C-98.2365603 90.31322748 -100.44226091 91.58280893 -102.6484375 92.8515625 C-103.65519531 93.43164062 -104.66195312 94.01171875 -105.69921875 94.609375 C-106.66633789 95.16488037 -107.63345703 95.72038574 -108.62988281 96.29272461 C-110.50391718 97.39380905 -112.36062046 98.52495591 -114.19824219 99.68579102 C-118.75122735 102.55716952 -122.16587616 104.67856743 -127.69921875 104.76171875 C-128.69953125 104.7978125 -129.69984375 104.83390625 -130.73046875 104.87109375 C-131.62765625 104.896875 -132.52484375 104.92265625 -133.44921875 104.94921875 C-135.45437375 105.249992 -137.45890765 105.56221381 -139.44921875 105.94921875 C-138.74410156 105.24539062 -138.03898438 104.5415625 -137.3125 103.81640625 C-135.40712688 101.91170333 -133.50952228 99.99968372 -131.6171875 98.08203125 C-126.67665297 93.08889412 -121.72815748 88.21142127 -116.375 83.65625 C-113.33397462 80.96065549 -110.52854498 78.03650823 -107.67578125 75.14453125 C-105.00288701 72.50915132 -102.19553572 70.07155386 -99.34765625 67.62890625 C-97.46951122 65.96717299 -95.70616359 64.2379635 -93.94921875 62.44921875 C-91.57879518 60.03589158 -89.14185567 57.77650022 -86.57421875 55.57421875 C-83.56454345 52.9828767 -80.73833259 50.27667092 -77.94921875 47.44921875 C-74.58807393 44.04203085 -71.11220672 40.87463701 -67.48046875 37.76171875 C-64.40947558 35.02144792 -61.56134999 32.06974973 -58.671875 29.140625 C-56.02220435 26.52820807 -53.23749072 24.11619254 -50.4140625 21.6953125 C-48.34101551 19.853062 -46.39486073 17.92520213 -44.44921875 15.94921875 C-41.1979213 12.65329565 -37.83657601 9.55340131 -34.31640625 6.546875 C-33.15728338 5.55507322 -32.01322901 4.54499711 -30.89453125 3.5078125 C-22.21569954 -4.35004864 -10.26856155 -5.71567461 0 0 Z " fill="#FCCBBC" transform="translate(356.44921875,75.05078125)"/>
<path d="M0 0 C2.00348237 2.62626575 3.90358744 5.28216782 5.6875 8.0625 C6.12449219 8.73410156 6.56148437 9.40570313 7.01171875 10.09765625 C8 12 8 12 8 15 C7.00709961 15.57161865 7.00709961 15.57161865 5.99414062 16.15478516 C2.82902985 17.97750122 -0.33564627 19.80097008 -3.5 21.625 C-4.08622131 21.96290558 -4.67244263 22.30081116 -5.27642822 22.6489563 C-13.49146821 27.38550695 -21.69042521 32.14843926 -29.875 36.9375 C-39.8542045 42.77360834 -49.88270341 48.52074736 -59.92480469 54.24755859 C-68.0109943 58.85940148 -76.07733335 63.50382753 -84.12890625 68.17578125 C-89.93417842 71.54412298 -95.74844703 74.89684463 -101.5625 78.25 C-102.65715576 78.88139893 -103.75181152 79.51279785 -104.87963867 80.16333008 C-109.38416492 82.76142542 -113.8888652 85.35921895 -118.39355469 87.95703125 C-120.63797918 89.25141764 -122.88228354 90.54601234 -125.12646484 91.84082031 C-127.31352963 93.10190618 -129.50134172 94.36169701 -131.68994141 95.62011719 C-136.73040363 98.52091363 -141.75673311 101.44045836 -146.75 104.421875 C-147.63115479 104.94426758 -148.51230957 105.46666016 -149.42016602 106.00488281 C-151.05334945 106.97487751 -152.6817788 107.95293914 -154.30444336 108.94042969 C-156.15918417 110.03788961 -158.07540109 111.03025735 -160 112 C-163.74502433 110.75165856 -164.76484276 109.13825974 -167.1875 106.0625 C-167.90292969 105.16660156 -168.61835938 104.27070313 -169.35546875 103.34765625 C-171 101 -171 101 -171 99 C-168.35921766 97.47647173 -165.71843269 95.952948 -163.07763672 94.42944336 C-160.74328358 93.08267577 -158.40896765 91.73584393 -156.07470703 90.38891602 C-150.16021511 86.97622702 -144.24511559 83.56460594 -138.328125 80.15625 C-127.91019664 74.15352393 -117.50326743 68.13357113 -107.125 62.0625 C-97.85500223 56.64078822 -88.54168248 51.29795085 -79.21154785 45.98077393 C-70.0937264 40.78328518 -61.01115483 35.52824513 -51.95288086 30.22753906 C-44.50646907 25.87186848 -37.03850247 21.55466055 -29.5625 17.25 C-19.67502387 11.55574199 -9.81874508 5.81193128 0 0 Z " fill="#3C4DC2" transform="translate(435,102)"/>
<path d="M0 0 C41.91 0 83.82 0 127 0 C127 7.92 127 15.84 127 24 C85.09 24 43.18 24 0 24 C0 16.08 0 8.16 0 0 Z " fill="#E074A4" transform="translate(293,377)"/>
<path d="M0 0 C20.93995648 -0.07002168 41.87989371 -0.12295458 62.81994343 -0.15543652 C72.54235557 -0.17091803 82.26469504 -0.19203202 91.98706055 -0.22631836 C100.45918376 -0.25618148 108.93125436 -0.27556566 117.40342873 -0.28226548 C121.89110747 -0.28618299 126.37863567 -0.2954162 130.86626625 -0.31719017 C135.08758193 -0.33750662 139.30868463 -0.34384367 143.53004456 -0.33932304 C145.08168888 -0.34015042 146.63334011 -0.34614492 148.18494225 -0.35761642 C150.29924357 -0.37248533 152.41273479 -0.36897485 154.52705383 -0.36076355 C155.71155782 -0.36352893 156.8960618 -0.36629431 158.11645985 -0.36914349 C161 0 161 0 162.88201141 1.31492615 C164.74978692 4.13010665 164.38954801 7.23813796 164.34057617 10.50073242 C164.34101425 11.26194901 164.34145233 12.02316559 164.34190369 12.80744934 C164.33981353 15.32371666 164.31647235 17.83931782 164.29296875 20.35546875 C164.28737359 22.09995662 164.28310311 23.84444921 164.28010559 25.58894348 C164.26865049 30.18070487 164.23917765 34.77218164 164.20599365 39.36383057 C164.17530707 44.04915517 164.16160328 48.73452575 164.14648438 53.41992188 C164.11430847 62.61342643 164.06153517 71.80664502 164 81 C157.07 81 150.14 81 143 81 C142.67 54.93 142.34 28.86 142 2 C95.14 1.67 48.28 1.34 0 1 C0 0.67 0 0.34 0 0 Z " fill="#5390F2" transform="translate(276,416)"/>
<path d="M0 0 C8.25 0 16.5 0 25 0 C25.24977359 7.89389336 25.45100365 15.78465483 25.56993389 23.68145466 C25.62705252 27.3494466 25.70433002 31.01456845 25.82983398 34.6809082 C25.95047538 38.2279077 26.01534456 41.77217152 26.04364967 45.3210659 C26.07349979 47.31525024 26.15920385 49.3083508 26.2462616 51.30085754 C26.2505904 57.76380661 25.76800198 61.88505068 21.19986439 66.73679638 C18.89506257 68.94669434 16.47591585 70.98519082 14 73 C12.55828235 74.28695736 11.1197007 75.57745995 9.6875 76.875 C6.48915473 79.62054583 3.23847391 82.30127174 0 85 C0 56.95 0 28.9 0 0 Z " fill="#DFDCE0" transform="translate(281,15)"/>
<path d="M0 0 C2.30511675 2.30511675 2.86107985 4.01840093 4 7.0625 C7.42098931 15.54779373 12.24548249 23.20813053 17 31 C11.45009804 35.57606908 6.32229276 38.62206968 -1.01953125 38.28125 C-5.92967127 37.58395201 -9.59325692 35.78063162 -12.8125 32.0625 C-16.92552764 26.30426131 -17.88494361 22.05714528 -17 15 C-13.57455745 7.8750795 -7.11814689 3.1250401 0 0 Z " fill="#5564C8" transform="translate(194,219)"/>
<path d="M0 0 C7.51596485 5.74344022 13.30139945 14.16565263 18.55078125 21.94921875 C14.05976497 25.9911334 8.96093136 28.38596316 3.55078125 30.94921875 C3.02097656 30.12035156 2.49117188 29.29148438 1.9453125 28.4375 C-0.70517501 24.46351631 -3.72408899 20.81797726 -6.76171875 17.13671875 C-10.97545275 11.9958336 -15.14853779 6.83720036 -19.1796875 1.55078125 C-20.50119923 -0.1793488 -20.50119923 -0.1793488 -22.44921875 -2.05078125 C-14.70187351 -4.24886525 -7.08794385 -3.94528294 0 0 Z " fill="#E7AB9A" transform="translate(356.44921875,75.05078125)"/>
<path d="M0 0 C6.93 0 13.86 0 21 0 C21 7.92 21 15.84 21 24 C14.07 24 7.14 24 0 24 C0 16.08 0 8.16 0 0 Z " fill="#C958A5" transform="translate(399,377)"/>
<path d="M0 0 C4.04191465 4.49101628 6.43674441 9.58984989 9 15 C-3.70218839 22.1132255 -3.70218839 22.1132255 -11 21 C-16.71182223 19.25741017 -19.62831817 16.91302209 -23 12 C-24.3125 8.625 -24.3125 8.625 -25 6 C-24.01 6.33 -23.02 6.66 -22 7 C-13.65268234 7.92747974 -8.15008353 5.19022752 -1 1 C-0.67 0.67 -0.34 0.34 0 0 Z " fill="#3C4DC1" transform="translate(202,236)"/>
<path d="M0 0 C0 9.24 0 18.48 0 28 C-9.88514219 26.90165087 -12.94109492 25.75677792 -18.875 18.375 C-22 14.3030303 -22 14.3030303 -22 12 C-21.47043701 11.70754395 -20.94087402 11.41508789 -20.39526367 11.11376953 C-17.99193111 9.78552194 -15.58970619 8.45528352 -13.1875 7.125 C-12.35412109 6.66480469 -11.52074219 6.20460937 -10.66210938 5.73046875 C-9.85966797 5.28574219 -9.05722656 4.84101563 -8.23046875 4.3828125 C-7.49207764 3.97434082 -6.75368652 3.56586914 -5.99291992 3.14501953 C-0.51897655 0 -0.51897655 0 0 0 Z " fill="#D8D5D9" transform="translate(306,213)"/>
<path d="M0 0 C3.06862356 2.54471222 3.84823663 4.08941981 4.5 8 C3.8682837 11.79029782 2.60123795 13.18773447 0 16 C-3.015625 18.01953125 -3.015625 18.01953125 -6.25 19.8125 C-7.32765625 20.41707031 -8.4053125 21.02164063 -9.515625 21.64453125 C-10.33546875 22.09183594 -11.1553125 22.53914063 -12 23 C-14.82668244 20.34847523 -16.88761087 17.83463573 -18.75 14.4375 C-19.17796875 13.67308594 -19.6059375 12.90867187 -20.046875 12.12109375 C-21 10 -21 10 -21 7 C-15.09127382 2.33100655 -7.72863123 -2.32022333 0 0 Z " fill="#DC72A1" transform="translate(465,78)"/>
<path d="M0 0 C1.72990025 0.93614567 3.45888696 1.87397958 5.1875 2.8125 C6.15042969 3.33457031 7.11335938 3.85664063 8.10546875 4.39453125 C9.06066406 4.92433594 10.01585937 5.45414062 11 6 C11.9384375 6.474375 12.876875 6.94875 13.84375 7.4375 C16 9 16 9 16.48828125 11.04296875 C16.32552083 13.02864583 16.16276042 15.01432292 16 17 C15.33613281 17.10957031 14.67226563 17.21914063 13.98828125 17.33203125 C9.09120522 18.21136023 5.09838572 18.99451714 1 22 C0 21 0 21 -0.11352539 18.95874023 C-0.10828857 18.08419189 -0.10305176 17.20964355 -0.09765625 16.30859375 C-0.09443359 15.36435547 -0.09121094 14.42011719 -0.08789062 13.44726562 C-0.07951172 12.45404297 -0.07113281 11.46082031 -0.0625 10.4375 C-0.05798828 9.44041016 -0.05347656 8.44332031 -0.04882812 7.41601562 C-0.03700007 4.94395151 -0.02051849 2.47200482 0 0 Z " fill="#DCD9DD" transform="translate(281,345)"/>
</svg>
